<svg width="16" height="16" viewBox="0 0 16 16" fill="none" xmlns="http://www.w3.org/2000/svg">
<path fill-rule="evenodd" clip-rule="evenodd" d="M14.2708 5.59734C13.8606 5.78346 13.4505 5.8455 12.972 5.90754C13.4505 5.65938 13.7923 5.28715 13.929 4.79083C13.5188 5.03899 13.0403 5.16307 12.4934 5.28715C12.0833 4.91491 11.4681 4.66675 10.8528 4.66675C9.69072 4.66675 8.66533 5.59734 8.66533 6.71406C8.66533 6.90018 8.66533 7.02426 8.73369 7.14834C6.88799 7.0863 5.17901 6.27978 4.08526 5.03899C3.88019 5.34919 3.81183 5.65938 3.81183 6.09366C3.81183 6.7761 4.22198 7.3965 4.83722 7.76874C4.49542 7.76874 4.15362 7.64466 3.81183 7.52058C3.81183 8.51321 4.56378 9.31973 5.58917 9.50585C5.38409 9.56789 5.17901 9.56789 4.97393 9.56789C4.83721 9.56789 4.7005 9.56789 4.56378 9.50585C4.83722 10.3124 5.65753 10.9328 6.68291 10.9328C5.93096 11.4911 4.97393 11.8013 3.88019 11.8013C3.67511 11.8013 3.53839 11.8013 3.33331 11.8013C4.3587 12.3597 5.52081 12.7319 6.75127 12.7319C10.8528 12.7319 13.1087 9.62993 13.1087 6.96222C13.1087 6.90018 13.1087 6.7761 13.1087 6.71406C13.5872 6.40386 13.9973 6.03162 14.2708 5.59734Z" fill="white"/>
</svg>
