<svg width="16" height="16" viewBox="0 0 16 16" fill="none" xmlns="http://www.w3.org/2000/svg">
<path d="M8.16312 2C4.87421 2 3.12512 4.1076 3.12512 6.40571C3.12512 7.47152 3.72065 8.80058 4.67395 9.2221C4.8187 9.28735 4.89746 9.2596 4.92971 9.12535C4.95821 9.02334 5.08347 8.53207 5.14422 8.3003C5.16297 8.22605 5.15322 8.16155 5.09322 8.09179C4.7767 7.72578 4.52544 7.059 4.52544 6.43346C4.52544 4.83064 5.79975 3.27431 7.96811 3.27431C9.8432 3.27431 11.155 4.49237 11.155 6.23471C11.155 8.20355 10.1132 9.56562 8.75939 9.56562C8.01011 9.56562 7.45208 8.97759 7.62909 8.25005C7.84285 7.38376 8.26212 6.45222 8.26212 5.82744C8.26212 5.26716 7.94561 4.80364 7.29907 4.80364C6.53629 4.80364 5.91751 5.55892 5.91751 6.57297C5.91751 7.21725 6.14552 7.65227 6.14552 7.65227C6.14552 7.65227 5.39098 10.7004 5.25073 11.2697C5.01371 12.2335 5.28298 13.7943 5.30623 13.9286C5.32048 14.0028 5.40373 14.0261 5.45023 13.9653C5.52449 13.8678 6.43653 12.5665 6.69229 11.626C6.7853 11.2832 7.16707 9.89338 7.16707 9.89338C7.41833 10.3472 8.14361 10.7274 8.91615 10.7274C11.2143 10.7274 12.8748 8.70757 12.8748 6.20095C12.8666 3.79784 10.81 2 8.16312 2Z" fill="white"/>
</svg>
