<svg width="200" height="200" viewBox="0 0 200 200" fill="none" xmlns="http://www.w3.org/2000/svg">
<g clip-path="url(#clip0_1135_2905)">
<path d="M60.0761 69.3448C54.1984 69.3448 48.2961 70.6141 47.9108 70.9028C41.9694 75.3184 36.528 81.0642 32.1023 87.8103C4.97301 130.395 25.7592 186.5 67.8254 197.959C95.3001 193.627 116.535 166.575 116.535 133.956C116.535 98.3291 91.2061 69.3448 60.0761 69.3448Z" fill="black"/>
<path d="M102.816 60.8952V43.4845C102.816 26.42 112.02 17.969 120.686 7.85796L111.515 0C103.174 9.72906 99.1047 13.7458 95.3283 22.1247C93.1424 18.9082 90.6103 15.8367 87.7763 12.9986C70.5628 -4.2148 38.0964 1.88398 36.7237 2.15369L32.7303 2.93063L31.9534 6.92402C31.6836 8.29675 25.5889 40.7591 42.7983 57.9766C43.2572 58.4315 43.7202 58.8824 44.1871 59.3212C88.0887 47.7448 128.612 85.271 128.612 133.956C128.612 161.027 116.198 184.392 97.8242 198.003C98.5609 197.806 99.2975 197.592 100.026 197.363C139.592 209.775 180.107 176.908 180.107 129.528C180.107 83.428 141.669 50.8187 102.816 60.8952Z" fill="black"/>
</g>
<defs>
<clipPath id="clip0_1135_2905">
<rect width="200" height="200" fill="white"/>
</clipPath>
</defs>
</svg>
