<svg width="80" height="80" viewBox="0 0 80 80" fill="none" xmlns="http://www.w3.org/2000/svg">
<path d="M50.4546 43.5373C50.4546 44.667 50.2749 45.7545 49.9421 46.7732C48.2699 47.0928 46.6585 47.6985 45.1796 48.5545C43.0796 49.7795 41.2984 51.4982 40 53.5467C37.8046 50.0509 34.1171 47.5318 30.0578 46.7732C27.8064 40.1573 33.0076 32.991 40.0001 33.089C45.7781 33.0888 50.4546 37.7717 50.4546 43.5373Z" fill="black"/>
<path d="M37.6562 61.6367C37.6562 67.4075 32.9747 72.0858 27.2008 72.0858C16.4754 71.9822 12.8433 57.9494 21.9494 52.6008C21.9652 52.5928 21.9794 52.5835 21.9952 52.5739C25.0141 50.7464 29.386 50.7458 32.4047 52.5739C35.5443 54.3778 37.6555 57.7606 37.6562 61.6367Z" fill="black"/>
<path d="M63.2559 61.6368C63.2559 67.4075 58.5745 72.0858 52.7991 72.0858C42.046 71.9785 38.4397 57.893 47.595 52.5741C50.6138 50.746 54.9856 50.7466 58.0045 52.5741C58.0203 52.5836 58.0345 52.593 58.0503 52.601C61.1639 54.4102 63.2559 57.7796 63.2559 61.6368Z" fill="black"/>
<path d="M76.0547 43.5373C76.0547 49.2185 71.5157 53.842 65.8657 53.9826C65.8641 53.9795 65.8626 53.9779 65.861 53.9748C64.5422 51.731 62.6563 49.856 60.4063 48.5482C60.4032 48.5466 60.4016 48.5451 60.3985 48.5435C60.3798 48.5326 60.3594 48.5216 60.3407 48.5091C58.886 47.6732 57.3001 47.0873 55.6563 46.7732C53.4079 40.1641 58.5951 32.9932 65.6001 33.0888C71.3735 33.0888 76.0547 37.767 76.0547 43.5373Z" fill="black"/>
<path d="M24.8561 43.5373C24.8561 44.667 24.6764 45.7545 24.3436 46.7732C22.6999 47.0873 21.1139 47.6732 19.6592 48.5092C19.6405 48.5217 19.6202 48.5326 19.6014 48.5436C19.5983 48.5451 19.5967 48.5467 19.5936 48.5482C17.3436 49.8561 15.4577 51.7311 14.1389 53.9748C14.1374 53.9779 14.1358 53.9795 14.1342 53.9826C8.48423 53.842 3.94517 49.2186 3.94517 43.5373C3.94517 37.767 8.62642 33.0889 14.3999 33.0889C20.1749 33.0889 24.8561 37.767 24.8561 43.5373Z" fill="black"/>
<path d="M29.5437 75.8109V77.6562C29.5437 78.95 28.4953 80 27.1999 80C25.9062 80 24.8562 78.95 24.8562 77.6562V75.8109C26.3762 76.0514 28.0229 76.0517 29.5437 75.8109Z" fill="black"/>
<path d="M55.1438 75.8109V77.6562C55.1438 78.95 54.0938 80 52.8 80C51.5047 80 50.4563 78.95 50.4563 77.6562V75.8109C51.9771 76.0517 53.6238 76.0514 55.1438 75.8109Z" fill="black"/>
<path d="M28.0593 34.2403C27.753 34.6309 27.4655 35.0387 27.2015 35.4591C24.6952 31.5044 20.4061 28.7856 15.4749 28.4403C12.278 21.1466 13.7874 12.2669 13.8702 11.8028C14.0421 10.8341 14.7999 10.0747 15.7686 9.90437C16.003 9.86218 19.8655 9.19812 24.5452 9.6153C20.0652 18.2139 22.443 27.4489 28.0593 34.2403Z" fill="black"/>
<path d="M53.1328 19.1887C53.1328 23.695 51.0515 27.7512 48.5078 31.0231C43.6829 27.5608 36.3167 27.5611 31.4921 31.0231C21.1192 18.0412 30.4492 6.55155 38.6564 0.423108C39.464 -0.140955 40.5359 -0.140955 41.3439 0.423108C43.7829 2.00155 53.3853 10.3505 53.1328 19.1887Z" fill="black"/>
<path d="M64.525 28.4403C59.5938 28.7856 55.3047 31.5044 52.8001 35.4591C52.5344 35.0387 52.2469 34.6309 51.9407 34.2403C57.5596 27.4423 59.9346 18.2145 55.4532 9.6153C60.1329 9.19812 63.9969 9.86218 64.2313 9.90437C65.2 10.0747 65.9579 10.8341 66.1297 11.8028C66.2125 12.2669 67.7219 21.1466 64.525 28.4403Z" fill="black"/>
</svg>
