<svg width="20" height="16" viewBox="0 0 20 16" fill="none" xmlns="http://www.w3.org/2000/svg">
<path d="M8.44029 3.85455C8.44029 1.81818 6.5635 0 4.54233 0C2.30461 0 0.5 1.89091 0.5 3.92727C0.5 5.6 1.51058 7.05455 2.95427 7.63636C9.45088 10.4 2.01587 16 2.01587 16H2.3768C8.58466 11.2 8.51248 4.87273 8.44029 3.85455ZM19.4845 3.85455C19.4845 1.81818 17.6077 0 15.5866 0C13.3488 0 11.5442 1.89091 11.5442 3.92727C11.5442 5.6 12.5548 7.05455 14.0707 7.63636C20.4951 10.4 13.0601 16 13.0601 16H13.421C19.6289 11.2 19.5567 4.87273 19.4845 3.85455Z" fill="#BB6B1E"/>
</svg>
