<svg width="80" height="80" viewBox="0 0 80 80" fill="none" xmlns="http://www.w3.org/2000/svg">
<g clip-path="url(#clip0_1127_2700)">
<path d="M39.9533 6.04126C39.2723 2.25032 33.9319 0.0371962 28.025 1.09813C23.5567 1.90063 18.2416 6.9097 15.9176 9.30204C15.6305 9.59766 15.5034 10.0139 15.5764 10.4197C15.6494 10.8255 15.9133 11.1713 16.2855 11.3483C19.2967 12.7825 26.0226 15.6289 30.4908 14.8264C36.3975 13.7656 40.6342 9.83235 39.9533 6.04126Z" fill="black"/>
<path d="M59.0497 41.8061C55.5369 37.5933 53.6061 32.2813 53.6061 26.7961C53.6061 21.1849 49.8939 16.4421 44.7919 14.8858C46.0249 12.7436 48.5597 9.04268 52.2902 7.00018C52.9434 6.64237 53.2372 5.85955 52.9781 5.16112L51.4266 0.980022C51.2697 0.557365 50.9314 0.227521 50.505 0.0814277C50.0784 -0.0648223 49.6091 -0.011541 49.2258 0.225647C46.5708 1.86862 41.4733 6.06159 40.6594 14.3571C34.0125 14.6174 28.7031 20.0853 28.7031 26.7961C28.7031 32.2935 26.7803 37.5839 23.2597 41.806C19.8917 45.8447 17.8656 51.0413 17.8656 56.7113C17.8656 69.5736 28.2927 80.0004 41.1547 80.0004C54.0167 80.0004 64.4438 69.5736 64.4438 56.7113C64.4436 51.0411 62.4174 45.8449 59.0497 41.8061Z" fill="black"/>
</g>
<defs>
<clipPath id="clip0_1127_2700">
<rect width="80" height="80" fill="white"/>
</clipPath>
</defs>
</svg>
