<svg width="16" height="17" viewBox="0 0 16 17" fill="none" xmlns="http://www.w3.org/2000/svg">
<path d="M16 3.1665H0V13.8333H16V3.1665Z" fill="#F0F0F0"/>
<path d="M16 4.49976H0V5.83297H16V4.49976Z" fill="#D80027"/>
<path d="M16 7.1665H0V8.49972H16V7.1665Z" fill="#D80027"/>
<path d="M16 9.83301H0V11.1662H16V9.83301Z" fill="#D80027"/>
<path d="M16 12.4998H0V13.833H16V12.4998Z" fill="#D80027"/>
<path d="M8 3.1665H0V8.91016H8V3.1665Z" fill="#2E52B2"/>
<path d="M3.11945 5.51953L2.99061 5.91591H2.57386L2.91108 6.16075L2.78224 6.55709L3.11945 6.31225L3.45645 6.55709L3.32764 6.16075L3.66486 5.91591H3.24808L3.11945 5.51953Z" fill="#F0F0F0"/>
<path d="M3.24808 7.3463L3.11945 6.94995L2.99061 7.3463H2.57386L2.91108 7.59117L2.78224 7.98751L3.11945 7.74264L3.45645 7.98751L3.32764 7.59117L3.66486 7.3463H3.24808Z" fill="#F0F0F0"/>
<path d="M1.48679 7.3463L1.35814 6.94995L1.22929 7.3463H0.812542L1.14976 7.59117L1.02092 7.98751L1.35814 7.74264L1.69517 7.98751L1.56635 7.59117L1.90351 7.3463H1.48679Z" fill="#F0F0F0"/>
<path d="M1.35814 5.51953L1.22929 5.91591H0.812542L1.14976 6.16075L1.02092 6.55709L1.35814 6.31225L1.69517 6.55709L1.56635 6.16075L1.90351 5.91591H1.48679L1.35814 5.51953Z" fill="#F0F0F0"/>
<path d="M3.11945 4.08911L2.99061 4.48552H2.57386L2.91108 4.73039L2.78224 5.12674L3.11945 4.88186L3.45645 5.12674L3.32764 4.73039L3.66486 4.48552H3.24808L3.11945 4.08911Z" fill="#F0F0F0"/>
<path d="M1.35814 4.08911L1.22929 4.48552H0.812542L1.14976 4.73039L1.02092 5.12674L1.35814 4.88186L1.69517 5.12674L1.56635 4.73039L1.90351 4.48552H1.48679L1.35814 4.08911Z" fill="#F0F0F0"/>
<path d="M4.88073 5.51953L4.75192 5.91591H4.33517L4.67235 6.16075L4.54357 6.55709L4.88073 6.31225L5.21779 6.55709L5.08895 6.16075L5.42617 5.91591H5.00942L4.88073 5.51953Z" fill="#F0F0F0"/>
<path d="M5.00942 7.3463L4.88073 6.94995L4.75192 7.3463H4.33517L4.67235 7.59117L4.54357 7.98751L4.88073 7.74264L5.21779 7.98751L5.08895 7.59117L5.42617 7.3463H5.00942Z" fill="#F0F0F0"/>
<path d="M6.77075 7.3463L6.64209 6.94995L6.51325 7.3463H6.09653L6.43368 7.59117L6.30487 7.98751L6.64209 7.74264L6.97912 7.98751L6.85028 7.59117L7.1875 7.3463H6.77075Z" fill="#F0F0F0"/>
<path d="M6.64209 5.51953L6.51325 5.91591H6.09653L6.43368 6.16075L6.30487 6.55709L6.64209 6.31225L6.97912 6.55709L6.85028 6.16075L7.1875 5.91591H6.77075L6.64209 5.51953Z" fill="#F0F0F0"/>
<path d="M4.88073 4.08911L4.75192 4.48552H4.33517L4.67235 4.73039L4.54357 5.12674L4.88073 4.88186L5.21779 5.12674L5.08895 4.73039L5.42617 4.48552H5.00942L4.88073 4.08911Z" fill="#F0F0F0"/>
<path d="M6.64209 4.08911L6.51325 4.48552H6.09653L6.43368 4.73039L6.30487 5.12674L6.64209 4.88186L6.97912 5.12674L6.85028 4.73039L7.1875 4.48552H6.77075L6.64209 4.08911Z" fill="#F0F0F0"/>
</svg>
